<?xml version="1.0" encoding="UTF-8"?>
<svg version="1.1" xmlns="http://www.w3.org/2000/svg" width="388" height="336">
<path d="M0 0 C2.97 0 5.94 0 9 0 C9 1.32 9 2.64 9 4 C8.34 4 7.68 4 7 4 C7.495 5.485 7.495 5.485 8 7 C7.0625 9.6875 7.0625 9.6875 6 12 C5.34 12 4.68 12 4 12 C4.495 13.485 4.495 13.485 5 15 C4.03685937 17.01800895 3.03041427 19.01549844 2 21 C1.29508733 23.32206525 0.62787571 25.65593068 0 28 C-0.65572791 30.00361307 -1.31875294 32.00491933 -2 34 C-2.66 34 -3.32 34 -4 34 C-4 35.65 -4 37.3 -4 39 C-2.35507915 38.98812133 -2.35507915 38.98812133 -0.67692757 38.97600269 C26.06730772 38.78358708 52.81161491 38.60918232 79.5560894 38.45341206 C92.48977501 38.37766886 105.42337573 38.29617974 118.35693359 38.20092773 C129.63633172 38.11787299 140.91573864 38.04583975 152.19528878 37.98676747 C158.16179583 37.95514256 164.12815739 37.91818492 170.09453964 37.86800575 C175.72345828 37.82083949 181.35227648 37.78853803 186.98134995 37.7670784 C189.03467197 37.75673196 191.08797632 37.74120032 193.14121246 37.71975899 C204.57516284 37.60368234 215.39431487 38.17082538 226.63611031 40.35249615 C229.75638448 41.06300562 229.75638448 41.06300562 232 41 C232 41.66 232 42.32 232 43 C233.98 43 235.96 43 238 43 C238 43.66 238 44.32 238 45 C239.485 44.505 239.485 44.505 241 44 C243.37157964 44.97514641 245.5532777 45.99756407 247.8125 47.1875 C248.41642578 47.49236328 249.02035156 47.79722656 249.64257812 48.11132812 C254.43730101 50.57320414 259.16424165 53.16424165 263 57 C263.639375 57.474375 264.27875 57.94875 264.9375 58.4375 C266.82008583 59.86370139 268.36671227 61.30138076 270 63 C270.78375 63.78375 271.5675 64.5675 272.375 65.375 C273.24125 66.24125 274.1075 67.1075 275 68 C275.78375 68.721875 276.5675 69.44375 277.375 70.1875 C285.44890522 78.83811274 292.70210544 90.25520558 295 102 C294.67 102.66 294.34 103.32 294 104 C294.66 104.33 295.32 104.66 296 105 C298.35694739 112.94378566 298.18090372 121.48040854 298.1875 129.6875 C298.18830566 130.64865723 298.18911133 131.60981445 298.18994141 132.60009766 C298.14224671 138.78451018 297.72794124 144.85899055 297 151 C296.34 151 295.68 151 295 151 C295.18433594 151.58136719 295.36867188 152.16273438 295.55859375 152.76171875 C296.94368496 159.78523435 291.04105868 167.92408591 287.69360352 173.85864258 C285.53319603 177.68932501 285.53319603 177.68932501 285 182 C286.58953505 183.99359772 286.58953505 183.99359772 288.6875 185.9375 C289.37199219 186.60652344 290.05648438 187.27554688 290.76171875 187.96484375 C292.981461 190.05076089 292.981461 190.05076089 295.515625 191.8671875 C304.7025289 199.75405783 309.76046827 213.40321687 312 225 C312.16113281 225.62261719 312.32226562 226.24523437 312.48828125 226.88671875 C313.64596928 231.6677052 314.12749492 236.26120034 314.1328125 241.17578125 C314.13410156 242.33400391 314.13539063 243.49222656 314.13671875 244.68554688 C314.13285156 245.88244141 314.12898438 247.07933594 314.125 248.3125 C314.12886719 249.49779297 314.13273437 250.68308594 314.13671875 251.90429688 C314.12956323 258.3550025 313.86344924 264.60636398 313 271 C312.34 271 311.68 271 311 271 C311.103125 271.94875 311.20625 272.8975 311.3125 273.875 C311.34000051 278.38508446 309.41120553 281.68592205 307.2890625 285.5703125 C305.94122835 287.9957438 305.94122835 287.9957438 304.9609375 290.6796875 C304 293 304 293 302 295 C301.67 295.845625 301.34 296.69125 301 297.5625 C300 300 300 300 298 301 C297.34 301.99 296.68 302.98 296 304 C291.99224458 309.61085759 288.13893381 314.6816574 282 318 C280.98131338 318.98095748 279.97648017 319.97702078 279 321 C278.34 321.33 277.68 321.66 277 322 C276.25105469 322.61746094 275.50210937 323.23492187 274.73046875 323.87109375 C263.62000008 332.53376246 249.77550121 336.13082673 235.8941803 336.12025452 C235.21603775 336.12111053 234.5378952 336.12196655 233.83920288 336.12284851 C231.57905376 336.1244925 229.31898014 336.11899844 227.05883789 336.11352539 C225.4059547 336.11321881 223.75307138 336.11335296 222.10018826 336.11389065 C217.68544092 336.11411583 213.27072084 336.10833209 208.85597992 336.10128021 C204.7089581 336.09557311 200.56194281 336.09531643 196.41491699 336.09460449 C184.29744107 336.08936319 172.17997019 336.07540198 160.0625 336.0625 C132.981875 336.041875 105.90125 336.02125 78 336 C78 253.17 78 170.34 78 85 C89.55 85.33 101.1 85.66 113 86 C113 157.28 113 228.56 113 302 C131.76875 301.87625 150.5375 301.7525 169.875 301.625 C175.78776855 301.59100098 181.70053711 301.55700195 187.79248047 301.52197266 C193.12124113 301.4820361 193.12124113 301.4820361 198.44998169 301.43954468 C200.81201852 301.42193092 203.17408545 301.40809463 205.53616333 301.39730835 C209.12693905 301.38016218 212.71743485 301.35079646 216.30810547 301.31884766 C217.34948606 301.31667551 218.39086666 301.31450336 219.46380424 301.3122654 C229.6053833 301.19678976 237.79621844 299.73509012 246.5 294.4375 C247.20125 294.02564453 247.9025 293.61378906 248.625 293.18945312 C250.42129015 292.13413266 252.21114693 291.06787841 254 290 C254.66 289.67 255.32 289.34 256 289 C257.68933922 287.3563186 259.35259924 285.6857124 261 284 C261.804375 283.278125 262.60875 282.55625 263.4375 281.8125 C269.73885066 274.89638342 273.14252637 266.80688028 276 258 C276.33 257.01 276.66 256.02 277 255 C277.22979799 251.58740326 277.18516744 248.16953652 277.1875 244.75 C277.19974609 243.82058594 277.21199219 242.89117187 277.22460938 241.93359375 C277.24141793 234.01116359 275.68654827 227.93473994 272 220.875 C270.14218501 217.29870614 268.43523089 213.76748108 267 210 C266.34 210 265.68 210 265 210 C264.01 208.02 263.02 206.04 262 204 C261.10539062 204.53109375 260.21078125 205.0621875 259.2890625 205.609375 C237.15302293 218.61483643 214.41291947 221.67678346 189 219 C188.01 218.67 187.02 218.34 186 218 C186.33 217.01 186.66 216.02 187 215 C189.0051616 214.61303899 191.01034884 214.22621065 193.015625 213.83984375 C203.30499501 210.94427497 212.87249417 204.74582113 221.546875 198.6640625 C223.65220579 197.2359241 225.69596786 196.06588403 228 195 C228 194.34 228 193.68 228 193 C229.47479764 191.72184205 230.95471769 190.44832524 232.4765625 189.2265625 C237.67560323 185.04066817 240.80782801 179.78204738 244 174 C244.57492187 172.989375 245.14984375 171.97875 245.7421875 170.9375 C249.05289833 165.00294781 251.81513469 159.71423674 253 153 C253.66 153 254.32 153 255 153 C254.67 152.01 254.34 151.02 254 150 C254.65266469 147.99538701 255.32204472 145.99620166 256 144 C257.91441071 133.47074109 257.72311161 122.49517428 255.33984375 112.07421875 C255 110 255 110 256 108 C255.34 108 254.68 108 254 108 C253.79375 107.030625 253.5875 106.06125 253.375 105.0625 C251.28528505 97.64249766 246.21754189 91.3888531 240 87 C238.6846659 86.29848848 237.34882408 85.63474075 236 85 C234 84 232 83 230 82 C230 81.34 230 80.68 230 80 C228.35 80 226.7 80 225 80 C225 79.34 225 78.68 225 78 C223.39125 77.814375 223.39125 77.814375 221.75 77.625 C219.3500643 77.33651885 217.00173567 77.00035742 214.63351822 76.51267433 C204.61787234 74.49978613 194.62078007 74.6917192 184.45214844 74.68115234 C182.39128736 74.67184052 180.33043001 74.66167001 178.26957703 74.65071106 C172.70642335 74.62353836 167.14329482 74.60829958 161.58009243 74.59528303 C155.75447665 74.57959651 149.92891179 74.55282402 144.10333252 74.5272522 C133.08584397 74.48056186 122.06834573 74.4437707 111.05080914 74.41057932 C98.50176584 74.37228891 85.9527738 74.32289695 73.40377378 74.27259517 C47.60255391 74.16942032 21.80130107 74.08011313 -4 74 C-4 74.99 -4 75.98 -4 77 C-3.34 77.33 -2.68 77.66 -2 78 C-0.25131697 81.06019531 0.97675679 83.91787401 1.9375 87.3125 C2.77209788 90.20904559 3.6797173 92.60636147 4.9375 95.3125 C7.12942589 100.07398695 8.60949725 104.95416047 10 110 C8 112 8 112 4.25 112.25 C1.2264125 111.8063214 0.2476165 111.30107916 -1.71875 108.91015625 C-3.24815154 106.31563578 -4.64838078 103.69102501 -6 101 C-7.97533129 97.36627491 -9.28453341 95.3026974 -13.25 93.625 C-14.1575 93.41875 -15.065 93.2125 -16 93 C-16.04898438 92.32453125 -16.09796875 91.6490625 -16.1484375 90.953125 C-16.22320312 90.06109375 -16.29796875 89.1690625 -16.375 88.25 C-16.44460937 87.36828125 -16.51421875 86.4865625 -16.5859375 85.578125 C-16.99850055 83.00933618 -17.71160957 81.24158985 -19 79 C-21.31 79 -23.62 79 -26 79 C-25.96519531 78.33613281 -25.93039063 77.67226562 -25.89453125 76.98828125 C-25.85392578 75.66376953 -25.85392578 75.66376953 -25.8125 74.3125 C-25.77769531 73.44238281 -25.74289063 72.57226562 -25.70703125 71.67578125 C-26.0799315 68.26995893 -26.81214731 66.65137614 -29 64 C-31.67975904 63.59097476 -33.71821917 63.50590031 -36.37890625 63.65234375 C-37.46896217 63.6771859 -37.46896217 63.6771859 -38.58103943 63.70252991 C-40.90960267 63.75698838 -43.23520673 63.84381097 -45.5625 63.9375 C-63.93338932 64.64652475 -63.93338932 64.64652475 -73 60 C-73.33 57.03 -73.66 54.06 -74 51 C-63.67370442 46.0613369 -53.70589578 45.72329903 -42.375 45.875 C-41.08464844 45.88402344 -39.79429688 45.89304688 -38.46484375 45.90234375 C-35.30969751 45.9257152 -32.15495074 45.95847909 -29 46 C-26.47331375 40.47871786 -26.47331375 40.47871786 -25.3125 34.5625 C-25.1578125 32.7990625 -25.1578125 32.7990625 -25 31 C-23.02 31.33 -21.04 31.66 -19 32 C-18.87625 31.38125 -18.7525 30.7625 -18.625 30.125 C-18 28 -18 28 -16 26 C-15.75712511 23.55987051 -15.75712511 23.55987051 -15.875 20.875 C-15.89304688 19.96492188 -15.91109375 19.05484375 -15.9296875 18.1171875 C-15.95289063 17.41851563 -15.97609375 16.71984375 -16 16 C-14.948125 15.835 -13.89625 15.67 -12.8125 15.5 C-9.29068015 14.53043016 -8.06058612 13.09563934 -6.1875 10 C-5.80980469 9.29875 -5.43210937 8.5975 -5.04296875 7.875 C-4 6 -4 6 -2 4 C-1.34 2.68 -0.68 1.36 0 0 Z M-25 39 C-24 41 -24 41 -24 41 Z " fill="#FFFFFF" transform="translate(74,0)"/>
<path d="M0 0 C11.22 0 22.44 0 34 0 C34 67.32 34 134.64 34 204 C22.78 204 11.56 204 0 204 C0 136.68 0 69.36 0 0 Z " fill="#FFFFFF" transform="translate(196,86)"/>
<path d="" fill="#FFFFFF" transform="translate(0,0)"/>
<path d="" fill="#FFFFFF" transform="translate(0,0)"/>
<path d="" fill="#FFFFFF" transform="translate(0,0)"/>
<path d="" fill="#FFFFFF" transform="translate(0,0)"/>
<path d="" fill="#FFFFFF" transform="translate(0,0)"/>
<path d="" fill="#FFFFFF" transform="translate(0,0)"/>
<path d="" fill="#FFFFFF" transform="translate(0,0)"/>
<path d="" fill="#FFFFFF" transform="translate(0,0)"/>
<path d="" fill="#FFFFFF" transform="translate(0,0)"/>
<path d="" fill="#FFFFFF" transform="translate(0,0)"/>
<path d="" fill="#FFFFFF" transform="translate(0,0)"/>
<path d="" fill="#FFFFFF" transform="translate(0,0)"/>
<path d="" fill="#FFFFFF" transform="translate(0,0)"/>
<path d="" fill="#FFFFFF" transform="translate(0,0)"/>
<path d="" fill="#FFFFFF" transform="translate(0,0)"/>
<path d="" fill="#FFFFFF" transform="translate(0,0)"/>
<path d="" fill="#FFFFFF" transform="translate(0,0)"/>
<path d="" fill="#FFFFFF" transform="translate(0,0)"/>
<path d="" fill="#FFFFFF" transform="translate(0,0)"/>
<path d="" fill="#FFFFFF" transform="translate(0,0)"/>
<path d="" fill="#FFFFFF" transform="translate(0,0)"/>
<path d="" fill="#FFFFFF" transform="translate(0,0)"/>
<path d="" fill="#FFFFFF" transform="translate(0,0)"/>
<path d="" fill="#FFFFFF" transform="translate(0,0)"/>
<path d="" fill="#FFFFFF" transform="translate(0,0)"/>
<path d="" fill="#FFFFFF" transform="translate(0,0)"/>
<path d="" fill="#FFFFFF" transform="translate(0,0)"/>
<path d="" fill="#FFFFFF" transform="translate(0,0)"/>
<path d="" fill="#FFFFFF" transform="translate(0,0)"/>
<path d="" fill="#FFFFFF" transform="translate(0,0)"/>
<path d="" fill="#FFFFFF" transform="translate(0,0)"/>
<path d="" fill="#FFFFFF" transform="translate(0,0)"/>
<path d="" fill="#FFFFFF" transform="translate(0,0)"/>
<path d="" fill="#FFFFFF" transform="translate(0,0)"/>
<path d="" fill="#FFFFFF" transform="translate(0,0)"/>
<path d="" fill="#FFFFFF" transform="translate(0,0)"/>
<path d="" fill="#FFFFFF" transform="translate(0,0)"/>
<path d="" fill="#FFFFFF" transform="translate(0,0)"/>
<path d="" fill="#FFFFFF" transform="translate(0,0)"/>
<path d="" fill="#FFFFFF" transform="translate(0,0)"/>
<path d="" fill="#FFFFFF" transform="translate(0,0)"/>
<path d="" fill="#FFFFFF" transform="translate(0,0)"/>
<path d="" fill="#FFFFFF" transform="translate(0,0)"/>
<path d="" fill="#FFFFFF" transform="translate(0,0)"/>
<path d="" fill="#FFFFFF" transform="translate(0,0)"/>
<path d="" fill="#FFFFFF" transform="translate(0,0)"/>
<path d="" fill="#FFFFFF" transform="translate(0,0)"/>
</svg>
