<svg width="40" height="40" viewBox="0 0 40 40" fill="none" xmlns="http://www.w3.org/2000/svg">
<path fill-rule="evenodd" clip-rule="evenodd" d="M20 40C8.9543 40 0 31.0457 0 20C0 8.9543 8.9543 0 20 0C31.0457 0 40 8.9543 40 20C40 31.0457 31.0457 40 20 40ZM20 35C28.2843 35 35 28.2843 35 20C35 11.7157 28.2843 5 20 5C11.7157 5 5 11.7157 5 20C5 28.2843 11.7157 35 20 35ZM18.2322 14.2678L21.4645 17.5H10V22.5H21.4645L18.2322 25.7322L21.7678 29.2678L31.0355 20L21.7678 10.7322L18.2322 14.2678Z" fill="white" fill-opacity="0.7"/>
</svg>
