<?xml version="1.0" encoding="UTF-8"?>
<svg version="1.1" xmlns="http://www.w3.org/2000/svg" width="186" height="186">
<path d="M0 0 C22.87850678 -0.71495334 45.23020507 7.53601659 62.1875 22.84765625 C78.00186599 37.82376265 88.15497197 58.27359272 89.375 80.16015625 C89.45427734 81.45953125 89.45427734 81.45953125 89.53515625 82.78515625 C90.25010959 105.66366303 81.99913966 128.01536132 66.6875 144.97265625 C51.7113936 160.78702224 31.26156353 170.94012822 9.375 172.16015625 C8.075625 172.23943359 8.075625 172.23943359 6.75 172.3203125 C-16.12850678 173.03526584 -38.48020507 164.78429591 -55.4375 149.47265625 C-71.25186599 134.49654985 -81.40497197 114.04671978 -82.625 92.16015625 C-82.67785156 91.29390625 -82.73070313 90.42765625 -82.78515625 89.53515625 C-83.50010959 66.65664947 -75.24913966 44.30495118 -59.9375 27.34765625 C-43.97533257 10.4920363 -23.0803422 1.40817564 0 0 Z M-18.625 20.16015625 C-20.11193359 20.670625 -20.11193359 20.670625 -21.62890625 21.19140625 C-38.41838785 27.5383878 -51.53074748 40.27743408 -59.625 56.16015625 C-66.68871556 72.29422793 -68.61080802 91.33713935 -62.625 108.16015625 C-62.11453125 109.64708984 -62.11453125 109.64708984 -61.59375 111.1640625 C-55.24676845 127.9535441 -42.50772217 141.06590373 -26.625 149.16015625 C-10.49092832 156.22387181 8.5519831 158.14596427 25.375 152.16015625 C26.36628906 151.81984375 27.35757813 151.47953125 28.37890625 151.12890625 C45.16838785 144.7819247 58.28074748 132.04287842 66.375 116.16015625 C73.43871556 100.02608457 75.36080802 80.98317315 69.375 64.16015625 C69.0346875 63.16886719 68.694375 62.17757812 68.34375 61.15625 C61.99676845 44.3667684 49.25772217 31.25440877 33.375 23.16015625 C17.24092832 16.09644069 -1.8019831 14.17434823 -18.625 20.16015625 Z " fill="#FFFFFF" transform="translate(89.625,6.83984375)"/>
<path d="M0 0 C2.50341797 1.13891602 2.50341797 1.13891602 4.9921875 2.75390625 C5.93247803 3.35364258 6.87276855 3.95337891 7.84155273 4.57128906 C8.84259033 5.22838867 9.84362793 5.88548828 10.875 6.5625 C13.02967939 7.94442918 15.18463528 9.32592735 17.33984375 10.70703125 C18.44183105 11.41939941 19.54381836 12.13176758 20.67919922 12.86572266 C24.89359422 15.57431265 29.14435584 18.22151202 33.40039062 20.86401367 C38.27745512 23.89257663 43.13970673 26.94461521 48 30 C48.88026855 30.55300781 49.76053711 31.10601562 50.66748047 31.67578125 C53.07485409 33.1930219 55.47610558 34.71939796 57.875 36.25 C58.57681396 36.69182617 59.27862793 37.13365234 60.00170898 37.58886719 C63.04365099 39.5441537 64.96704479 40.95056719 67 44 C67.4375 46.875 67.4375 46.875 67 50 C62.88435373 54.93877552 57.60472525 58.01179406 52.1875 61.375 C51.2269873 61.97860352 50.26647461 62.58220703 49.27685547 63.20410156 C46.18858582 65.14256317 43.09450871 67.07151716 40 69 C37.92546785 70.29897878 35.85124779 71.59845613 33.77734375 72.8984375 C29.72656358 75.43685811 25.66975524 77.96525211 21.609375 80.48828125 C18.09391268 82.67739042 14.60415466 84.89764092 11.140625 87.16796875 C10.41149902 87.64073242 9.68237305 88.11349609 8.93115234 88.60058594 C7.61163538 89.45853831 6.29876146 90.32684632 4.99462891 91.20800781 C1.18856555 93.66620086 -1.48179339 94.78976782 -6 94 C-8.63973999 92.48632812 -8.63973999 92.48632812 -11 90 C-11.50405573 87.04752476 -11.68511318 84.66737564 -11.64697266 81.71484375 C-11.65573425 80.88187775 -11.66449585 80.04891174 -11.67352295 79.19070435 C-11.69551802 76.43910531 -11.68096445 73.68911517 -11.6640625 70.9375 C-11.66743062 69.02465507 -11.6722832 67.11181222 -11.67855835 65.19897461 C-11.68592981 61.19071062 -11.6752154 57.18300388 -11.65185547 53.17480469 C-11.6233675 48.03618517 -11.63977001 42.89887128 -11.66971779 37.76029968 C-11.6877834 33.81056882 -11.68203613 29.86114765 -11.66907883 25.91140747 C-11.66574277 24.01677293 -11.6698389 22.12211028 -11.68147659 20.22750854 C-11.69417337 17.57930001 -11.67482632 14.93320711 -11.64697266 12.28515625 C-11.65709381 11.50165802 -11.66721497 10.71815979 -11.67764282 9.91091919 C-11.6024874 6.05517746 -11.3373496 4.35721209 -8.64709473 1.50856018 C-5.40954818 -0.33649423 -3.67610007 -0.51733494 0 0 Z M5 23 C5 38.84 5 54.68 5 71 C12.37709006 66.69669747 19.67890994 62.39345468 26.875 57.8125 C28.07769531 57.05163086 28.07769531 57.05163086 29.3046875 56.27539062 C33.572957 53.5691112 37.80841301 50.82359316 42 48 C40.68589565 44.05768694 39.0911431 43.54728274 35.56640625 41.41796875 C34.44169922 40.73283203 33.31699219 40.04769531 32.15820312 39.34179688 C30.95974925 38.62350796 29.76118088 37.90541003 28.5625 37.1875 C27.39860895 36.48191028 26.23519209 35.77553775 25.07226562 35.06835938 C21.72149613 33.03442937 18.36175146 31.01573998 15 29 C11.7 27.02 8.4 25.04 5 23 Z " fill="#FFFFFF" transform="translate(73,46)"/>
</svg>
