<?xml version="1.0" encoding="UTF-8"?>
<svg version="1.1" xmlns="http://www.w3.org/2000/svg" width="488" height="396">
<path d="M0 0 C1.670625 0.061875 1.670625 0.061875 3.375 0.125 C3.58216286 3.85393152 3.1011971 5.86440548 1.375 9.125 C1.045 10.300625 0.715 11.47625 0.375 12.6875 C-0.625 16.125 -0.625 16.125 -2.625 19.125 C-2.79 19.95 -2.955 20.775 -3.125 21.625 C-3.625 24.125 -3.625 24.125 -5.625 27.125 C-6.28658043 29.17084079 -6.28658043 29.17084079 -6.75 31.3125 C-7.03875 32.570625 -7.3275 33.82875 -7.625 35.125 C-6.61101356 35.12407821 -5.59702711 35.12315641 -4.5523138 35.12220669 C20.11855446 35.10000856 44.78942144 35.0835749 69.46029758 35.07318783 C81.39093442 35.06803123 93.32156466 35.06100061 105.25219727 35.04956055 C115.65075003 35.03959431 126.04929801 35.03314194 136.44785541 35.03091151 C141.95394192 35.0296077 147.46001475 35.02654267 152.96609688 35.01926994 C158.14932315 35.01247917 163.33253013 35.01038928 168.51576042 35.01189232 C170.41725138 35.01161737 172.31874299 35.00963039 174.2202301 35.00579453 C176.81896791 35.00080955 179.41763315 35.00201944 182.01637268 35.00474548 C182.76639055 35.00183264 183.51640843 34.9989198 184.28915411 34.99591869 C190.46478686 35.01339327 196.3464232 35.84621098 202.375 37.125 C202.375 37.785 202.375 38.445 202.375 39.125 C203.86 38.63 203.86 38.63 205.375 38.125 C205.375 38.785 205.375 39.445 205.375 40.125 C206.86 39.63 206.86 39.63 208.375 39.125 C211.44140625 40.26953125 211.44140625 40.26953125 214.9375 41.9375 C216.09378906 42.48019531 217.25007813 43.02289063 218.44140625 43.58203125 C221.375 45.125 221.375 45.125 223.375 47.125 C224.014375 47.434375 224.65375 47.74375 225.3125 48.0625 C227.46867209 49.17325532 228.70921463 50.38678918 230.375 52.125 C231.365 52.785 232.355 53.445 233.375 54.125 C234.36304001 55.24531859 235.31992053 56.39361635 236.25 57.5625 C238.70149406 60.51405006 241.05382725 62.18764923 244.375 64.125 C245.4375 66 245.4375 66 246.375 68.125 C246.973125 68.846875 247.57125 69.56875 248.1875 70.3125 C252.67656523 76.08415529 255.63005854 82.01100789 257.375 89.125 C257.69855469 90.04925781 258.02210938 90.97351563 258.35546875 91.92578125 C262.91923501 106.24656503 263.82175296 125.90292284 258.375 140.125 C257.6553931 142.6659848 256.94844168 145.20985967 256.25390625 147.7578125 C255.30885398 150.30315327 254.05651091 152.0108457 252.375 154.125 C251.21978498 156.59630918 251.21978498 156.59630918 250.375 159.125 C250.12492187 159.76050781 249.87484375 160.39601562 249.6171875 161.05078125 C249.13005742 163.2223468 249.13005742 163.2223468 250.703125 165.01171875 C251.33734375 165.60597656 251.9715625 166.20023438 252.625 166.8125 C253.24890625 167.41449219 253.8728125 168.01648438 254.515625 168.63671875 C256.40989773 170.32882463 256.40989773 170.32882463 259.375 171.125 C260.4375 173 260.4375 173 261.375 175.125 C262.035 176.115 262.695 177.105 263.375 178.125 C263.705 179.115 264.035 180.105 264.375 181.125 C265.00792969 181.73085937 265.64085937 182.33671875 266.29296875 182.9609375 C268.68479252 185.44699823 269.5561181 187.50874375 270.6875 190.75 C271.03425781 191.71164063 271.38101562 192.67328125 271.73828125 193.6640625 C272.375 196.125 272.375 196.125 271.375 198.125 C272.035 198.455 272.695 198.785 273.375 199.125 C275.77175026 207.30214796 276.54749238 214.95771457 276 223.4375 C275.95109619 224.2725708 275.90219238 225.1076416 275.85180664 225.96801758 C275.50286807 231.70456771 275.03029002 237.41461553 274.375 243.125 C273.715 243.125 273.055 243.125 272.375 243.125 C272.354375 244.32125 272.33375 245.5175 272.3125 246.75 C271.81198017 251.44143959 270.100958 255.3283993 268 259.5 C267.69570068 260.10666504 267.39140137 260.71333008 267.07788086 261.33837891 C265.48692882 264.38086748 263.90923449 266.81306678 261.375 269.125 C261.045 269.82625 260.715 270.5275 260.375 271.25 C259.375 273.125 259.375 273.125 256.375 274.125 C255.69013275 275.44907669 255.02629797 276.78409241 254.375 278.125 C251.9438933 280.88025426 249.75535726 282.67627546 246.375 284.125 C246.375 284.785 246.375 285.445 246.375 286.125 C245.776875 286.41375 245.17875 286.7025 244.5625 287 C242.07902589 288.27721526 239.85305396 289.73547455 237.6875 291.5 C232.29408676 295.28996606 226.94347786 297.4474551 220.484375 298.68359375 C218.13015567 299.12792322 218.13015567 299.12792322 215 300.3125 C212.375 301.125 212.375 301.125 209.375 300.125 C209.045 300.785 208.715 301.445 208.375 302.125 C160.855 302.125 113.335 302.125 64.375 302.125 C64.375 227.545 64.375 152.965 64.375 76.125 C74.935 76.125 85.495 76.125 96.375 76.125 C96.375 140.145 96.375 204.165 96.375 270.125 C112.978125 270.021875 129.58125 269.91875 146.6875 269.8125 C151.91247314 269.78760498 157.13744629 269.76270996 162.52075195 269.73706055 C167.24143314 269.70045739 167.24143314 269.70045739 171.96208191 269.6599884 C174.04989755 269.64393436 176.13776213 269.63358178 178.22563171 269.62788391 C181.40499695 269.61806523 184.58373269 269.58963649 187.76293945 269.55737305 C189.13693012 269.55951199 189.13693012 269.55951199 190.53867817 269.56169415 C200.0419387 269.42508705 208.2836061 267.14447483 216.4296875 262.25390625 C218.375 261.125 218.375 261.125 221.375 260 C222.035 259.71125 222.695 259.4225 223.375 259.125 C223.705 258.135 224.035 257.145 224.375 256.125 C226.91278873 253.38685953 229.2639356 251.19904293 232.375 249.125 C233.07437532 247.80852881 233.74229133 246.47477849 234.375 245.125 C235.035 244.465 235.695 243.805 236.375 243.125 C237.09206982 241.14251285 237.75790413 239.14084651 238.375 237.125 C238.705 236.135 239.035 235.145 239.375 234.125 C240.035 234.125 240.695 234.125 241.375 234.125 C241.045 233.135 240.715 232.145 240.375 231.125 C241.035 231.125 241.695 231.125 242.375 231.125 C242.42949228 228.29140156 242.46890733 225.45887515 242.5 222.625 C242.51675781 221.83351562 242.53351563 221.04203125 242.55078125 220.2265625 C242.58400868 216.17281559 242.36090312 212.58288688 241.3046875 208.65625 C240.375 205.125 240.375 205.125 241.375 203.125 C240.715 203.125 240.055 203.125 239.375 203.125 C238.694375 201.26875 238.694375 201.26875 238 199.375 C236.13356773 194.08661582 236.13356773 194.08661582 232.875 189.625 C231.18966827 187.93966827 230.34431207 186.28731155 229.375 184.125 C224.33051952 185.02097829 220.15954686 187.94062373 215.76171875 190.43359375 C212.23005405 192.19738939 209.21524307 193.26901403 205.375 194.125 C204.715 193.795 204.055 193.465 203.375 193.125 C203.375 193.785 203.375 194.445 203.375 195.125 C202.055 194.795 200.735 194.465 199.375 194.125 C199.375 194.785 199.375 195.445 199.375 196.125 C191.74757867 196.89185026 184.16248456 197.25280589 176.5 197.3125 C175.70424561 197.32539063 174.90849121 197.33828125 174.08862305 197.3515625 C169.13226196 197.35986896 165.07540573 196.71060353 160.375 195.125 C161.375 193.125 161.375 193.125 163.8125 191.9375 C166.375 191.125 166.375 191.125 168.375 192.125 C168.375 191.465 168.375 190.805 168.375 190.125 C169.303125 189.91875 170.23125 189.7125 171.1875 189.5 C175.73781228 188.22109349 179.64545074 185.901246 183.7265625 183.5625 C186.22789508 182.20484456 188.71328727 181.12434341 191.375 180.125 C191.375 179.465 191.375 178.805 191.375 178.125 C192.014375 178.021875 192.65375 177.91875 193.3125 177.8125 C194.3334375 177.4721875 194.3334375 177.4721875 195.375 177.125 C195.705 176.135 196.035 175.145 196.375 174.125 C197.93359375 172.58984375 197.93359375 172.58984375 199.8125 171.0625 C201.76053905 169.46421326 203.59073944 167.90926056 205.375 166.125 C206.035 165.465 206.695 164.805 207.375 164.125 C208.035 163.135 208.695 162.145 209.375 161.125 C210.035 160.135 210.695 159.145 211.375 158.125 C211.808125 157.25875 211.808125 157.25875 212.25 156.375 C213.20110499 154.47279003 214.27575619 152.63312256 215.375 150.8125 C217.35805987 147.38453406 218.41277239 143.97391043 219.375 140.125 C219.705 139.135 220.035 138.145 220.375 137.125 C221.035 137.125 221.695 137.125 222.375 137.125 C222.045 135.805 221.715 134.485 221.375 133.125 C222.035 133.125 222.695 133.125 223.375 133.125 C223.189375 132.485625 223.00375 131.84625 222.8125 131.1875 C222.668125 130.506875 222.52375 129.82625 222.375 129.125 C222.705 128.795 223.035 128.465 223.375 128.125 C223.47474389 126.22215013 223.5058063 124.31561747 223.5078125 122.41015625 C223.50974609 120.66895508 223.50974609 120.66895508 223.51171875 118.89257812 C223.50785156 117.66990234 223.50398438 116.44722656 223.5 115.1875 C223.50386719 113.96869141 223.50773437 112.74988281 223.51171875 111.49414062 C223.51042969 110.33205078 223.50914062 109.16996094 223.5078125 107.97265625 C223.50668457 106.90023682 223.50555664 105.82781738 223.50439453 104.72290039 C223.55033698 102.1405356 223.55033698 102.1405356 222.375 100.125 C222.705 99.465 223.035 98.805 223.375 98.125 C222.715 98.125 222.055 98.125 221.375 98.125 C221.705 96.805 222.035 95.485 222.375 94.125 C221.715 93.795 221.055 93.465 220.375 93.125 C219.32655451 91.50959621 218.33356759 89.85780403 217.375 88.1875 C213.33101974 81.16108429 208.86564846 78.18431107 201.49609375 75.08984375 C199.375 74.125 199.375 74.125 196.375 72.125 C195.715 72.125 195.055 72.125 194.375 72.125 C194.375 71.465 194.375 70.805 194.375 70.125 C193.055 70.455 191.735 70.785 190.375 71.125 C190.375 70.465 190.375 69.805 190.375 69.125 C189.055 69.455 187.735 69.785 186.375 70.125 C186.375 69.465 186.375 68.805 186.375 68.125 C184.395 68.455 182.415 68.785 180.375 69.125 C180.375 68.465 180.375 67.805 180.375 67.125 C118.665 67.455 56.955 67.785 -6.625 68.125 C-4.45358809 76.5103838 -4.45358809 76.5103838 -0.625 84.125 C-0.29166667 85.79166667 0.04166667 87.45833333 0.375 89.125 C1.365 90.61 1.365 90.61 2.375 92.125 C2.7890625 94.38671875 2.7890625 94.38671875 3 96.8125 C3.11214844 98.02486328 3.11214844 98.02486328 3.2265625 99.26171875 C3.27554688 99.87660156 3.32453125 100.49148437 3.375 101.125 C-2.77734375 100.5390625 -2.77734375 100.5390625 -4.625 100.125 C-5.625 98.125 -5.625 98.125 -6.625 95.125 C-7.429375 94.34125 -8.23375 93.5575 -9.0625 92.75 C-11.55107784 90.20072514 -12.57281267 88.47286879 -13.625 85.125 C-15.605 85.125 -17.585 85.125 -19.625 85.125 C-19.604375 84.073125 -19.58375 83.02125 -19.5625 81.9375 C-19.49340998 77.39713299 -19.49340998 77.39713299 -20.625 73.125 C-24.09807328 71.25516255 -24.09807328 71.25516255 -27.625 70.125 C-27.625 67.485 -27.625 64.845 -27.625 62.125 C-28.285 62.125 -28.945 62.125 -29.625 62.125 C-29.955 60.475 -30.285 58.825 -30.625 57.125 C-32.50832031 57.36476563 -32.50832031 57.36476563 -34.4296875 57.609375 C-39.87376403 58.21024763 -45.27640742 58.34504874 -50.75 58.375 C-51.70003906 58.395625 -52.65007813 58.41625 -53.62890625 58.4375 C-60.2414136 58.4741852 -65.19016459 57.78422741 -70.5625 53.625 C-71.625 52.125 -71.625 52.125 -71.625 49.125 C-71 47.0625 -71 47.0625 -69.625 45.125 C-63.97630952 42.73999735 -58.42399474 42.01253382 -52.3359375 41.9140625 C-51.14742187 41.88570312 -49.95890625 41.85734375 -48.734375 41.828125 C-46.23713323 41.77588145 -43.73971123 41.731659 -41.2421875 41.6953125 C-39.46328125 41.64890625 -39.46328125 41.64890625 -37.6484375 41.6015625 C-36.02301025 41.5718335 -36.02301025 41.5718335 -34.36474609 41.54150391 C-31.31578114 41.07799168 -30.43494724 40.55937531 -28.625 38.125 C-27.48147084 35.83794169 -27.52165561 34.53235238 -27.5625 32 C-27.583125 30.72125 -27.60375 29.4425 -27.625 28.125 C-25.645 28.125 -23.665 28.125 -21.625 28.125 C-21.625 27.465 -21.625 26.805 -21.625 26.125 C-20.965 25.465 -20.305 24.805 -19.625 24.125 C-19.16493654 21.92249008 -19.16493654 21.92249008 -19 19.5 C-18.92523438 18.68273437 -18.85046875 17.86546875 -18.7734375 17.0234375 C-18.72445312 16.39695312 -18.67546875 15.77046875 -18.625 15.125 C-16.645 14.795 -14.665 14.465 -12.625 14.125 C-12.625 13.465 -12.625 12.805 -12.625 12.125 C-11.965 11.465 -11.305 10.805 -10.625 10.125 C-10.315625 9.320625 -10.00625 8.51625 -9.6875 7.6875 C-8.61963814 5.11206845 -7.68987121 3.93176231 -5.625 2.125 C-3.625 0.125 -3.625 0.125 0 0 Z M247.375 160.125 C248.375 162.125 248.375 162.125 248.375 162.125 Z " fill="#FEFEFE" transform="translate(74.625,-0.125)"/>
<path d="M0 0 C6.6 0 13.2 0 20 0 C19.67 24.75 19.34 49.5 19 75 C11.66666667 75 4.33333333 75 -3 75 C-3.54398438 75.16113281 -4.08796875 75.32226562 -4.6484375 75.48828125 C-7.9647612 76.20993973 -11.24807834 76.1842654 -14.625 76.1875 C-15.305625 76.19974609 -15.98625 76.21199219 -16.6875 76.22460938 C-18.45990756 76.22986355 -20.2317994 76.12215906 -22 76 C-22.66 75.34 -23.32 74.68 -24 74 C-24.474375 73.54625 -24.94875 73.0925 -25.4375 72.625 C-29.08445384 68.83216801 -30.36554561 66.28711988 -31 61 C-31.185625 60.071875 -31.37125 59.14375 -31.5625 58.1875 C-32.12257436 54.10695823 -32.08222569 50.11128435 -32 46 C-34.10714492 47.80900253 -34.10714492 47.80900253 -34.6875 50.0625 C-36 52 -36 52 -39.07421875 52.64453125 C-43.18611663 53.01685235 -47.02115799 52.93530941 -51.125 52.625 C-51.81464844 52.58117187 -52.50429688 52.53734375 -53.21484375 52.4921875 C-56.88120003 52.23981881 -60.41722604 51.82250453 -64 51 C-64 54.3 -64 57.6 -64 61 C-63.34 61 -62.68 61 -62 61 C-61.01 64.465 -61.01 64.465 -60 68 C-59.34 68 -58.68 68 -58 68 C-58 68.66 -58 69.32 -58 70 C-55.69 70 -53.38 70 -51 70 C-51 69.34 -51 68.68 -51 68 C-50.02149805 66.97895449 -49.02019573 65.9793879 -48 65 C-47.67 64.34 -47.34 63.68 -47 63 C-46.34 63 -45.68 63 -45 63 C-45.33 60.03 -45.66 57.06 -46 54 C-39.84765625 54.5859375 -39.84765625 54.5859375 -38 55 C-36.76112452 57.47775095 -36.83258331 59.23653707 -36.8125 62 C-36.79832031 62.886875 -36.78414062 63.77375 -36.76953125 64.6875 C-37 67 -37 67 -39 69 C-39.928125 69.9590625 -39.928125 69.9590625 -40.875 70.9375 C-44.42729418 74.38531494 -46.61608394 76.38205075 -51.703125 76.36328125 C-52.60160156 76.36263672 -53.50007813 76.36199219 -54.42578125 76.36132812 C-55.35777344 76.34521484 -56.28976562 76.32910156 -57.25 76.3125 C-58.16652344 76.31572266 -59.08304687 76.31894531 -60.02734375 76.32226562 C-73.22661878 76.21870498 -73.22661878 76.21870498 -77.875 72.5 C-78.431875 71.7575 -78.431875 71.7575 -79 71 C-79.66 70.34 -80.32 69.68 -81 69 C-81.33 68.01 -81.66 67.02 -82 66 C-82.495 65.608125 -82.99 65.21625 -83.5 64.8125 C-87.84599115 59.56109403 -86.03967725 49.57952586 -85.9375 43.09765625 C-85.6396181 40.12948229 -85.6396181 40.12948229 -87 39 C-87.18175781 39.81791016 -87.18175781 39.81791016 -87.3671875 40.65234375 C-88.578125 46.1015625 -89.7890625 51.55078125 -91 57 C-91.66 57 -92.32 57 -93 57 C-92.67 57.99 -92.34 58.98 -92 60 C-92.66 60 -93.32 60 -94 60 C-93.67 60.99 -93.34 61.98 -93 63 C-93.66 63 -94.32 63 -95 63 C-94.505 64.485 -94.505 64.485 -94 66 C-94.66 66 -95.32 66 -96 66 C-95.67 66.99 -95.34 67.98 -95 69 C-95.66 69 -96.32 69 -97 69 C-96.67 69.99 -96.34 70.98 -96 72 C-96.66 72 -97.32 72 -98 72 C-97.67 72.99 -97.34 73.98 -97 75 C-100.06533164 76.53266582 -103.26754272 76.10276471 -106.625 76.0625 C-107.33140625 76.05798828 -108.0378125 76.05347656 -108.765625 76.04882812 C-110.51045275 76.03703875 -112.255237 76.01910324 -114 76 C-116.125 69.25 -116.125 69.25 -115 67 C-115.99 66.505 -115.99 66.505 -117 66 C-116.67 65.34 -116.34 64.68 -116 64 C-116.99 63.505 -116.99 63.505 -118 63 C-117.505 62.01 -117.505 62.01 -117 61 C-117.99 60.505 -117.99 60.505 -119 60 C-120.03515625 57.85546875 -120.03515625 57.85546875 -121.0625 55.1875 C-121.40410156 54.31480469 -121.74570313 53.44210937 -122.09765625 52.54296875 C-122.87435707 50.35408461 -123.59819267 48.28682936 -124 46 C-123.505 45.01 -123.505 45.01 -123 44 C-123.99 43.505 -123.99 43.505 -125 43 C-125 42.34 -125 41.68 -125 41 C-125.12375 41.78375 -125.2475 42.5675 -125.375 43.375 C-126 46 -126 46 -128 48 C-128.226875 48.680625 -128.45375 49.36125 -128.6875 50.0625 C-130 52 -130 52 -132.8984375 52.6484375 C-137.91622037 53.23903009 -142.90914457 52.86152045 -147.9375 52.5625 C-148.90751953 52.51029297 -149.87753906 52.45808594 -150.87695312 52.40429688 C-153.25170788 52.27561558 -155.62593229 52.14070204 -158 52 C-157.88652381 53.97986082 -157.7589065 55.95891598 -157.625 57.9375 C-157.55539063 59.03964844 -157.48578125 60.14179688 -157.4140625 61.27734375 C-157.27742188 62.17582031 -157.14078125 63.07429688 -157 64 C-156.34 64.33 -155.68 64.66 -155 65 C-153 68 -153 68 -152 70 C-147.41412216 69.82016165 -145.49954873 69.47782922 -142.125 66.25 C-140.18011366 63.27546795 -139.30767886 61.48702706 -139 58 C-139.99 57.505 -139.99 57.505 -141 57 C-139.3125 55.4375 -139.3125 55.4375 -137 54 C-134.3125 54.1875 -134.3125 54.1875 -132 55 C-130.83016655 57.3396669 -130.8338759 58.83391527 -130.8125 61.4375 C-130.79832031 62.21996094 -130.78414062 63.00242187 -130.76953125 63.80859375 C-131.27012668 68.5684927 -135.41978658 71.62308276 -138.83886719 74.60229492 C-141.36632661 76.23692045 -142.7205504 76.37428596 -145.703125 76.36328125 C-146.60160156 76.36263672 -147.50007813 76.36199219 -148.42578125 76.36132812 C-149.35777344 76.34521484 -150.28976563 76.32910156 -151.25 76.3125 C-152.16652344 76.31572266 -153.08304688 76.31894531 -154.02734375 76.32226562 C-167.31994964 76.21797271 -167.31994964 76.21797271 -171.8125 72.5 C-172.204375 72.005 -172.59625 71.51 -173 71 C-173.99 70.34 -174.98 69.68 -176 69 C-176 68.01 -176 67.02 -176 66 C-176.474375 65.608125 -176.94875 65.21625 -177.4375 64.8125 C-181.94167618 59.58765563 -180.27876944 48.17457239 -179.84375 41.66015625 C-179.32870079 36.72120224 -178.51148275 33.51148275 -175 30 C-174.34 29.01 -173.68 28.02 -173 27 C-171 25 -171 25 -169.0625 24.0625 C-166.94707423 23.13142545 -166.94707423 23.13142545 -165.625 21.4375 C-161.99748456 18.22854404 -156.09048845 18.71837178 -151.4375 18.78125 C-144.63961289 19.39131679 -139.07407639 21.38720328 -134 26 C-133.01 26.33 -132.02 26.66 -131 27 C-131.495 23.535 -131.495 23.535 -132 20 C-128.95863909 19.72296514 -125.92011927 19.4777142 -122.875 19.25 C-122.0190625 19.16878906 -121.163125 19.08757812 -120.28125 19.00390625 C-114.56605796 18.60823911 -111.5467181 19.13635692 -107 23 C-103.17171201 26.56426813 -103.30689721 31.04731401 -103 36 C-102.34 36 -101.68 36 -101 36 C-100.93941406 36.59167969 -100.87882812 37.18335938 -100.81640625 37.79296875 C-100.24887395 43.9575294 -100.24887395 43.9575294 -99 50 C-98.34 50.33 -97.68 50.66 -97 51 C-97.33 50.01 -97.66 49.02 -98 48 C-97.34 48 -96.68 48 -96 48 C-96.33 47.01 -96.66 46.02 -97 45 C-96.34 45 -95.68 45 -95 45 C-95.309375 44.13375 -95.309375 44.13375 -95.625 43.25 C-96.100544 40.39673603 -95.29700182 39.54865394 -94 37 C-93.46204291 35.21936202 -92.96419423 33.42627543 -92.5 31.625 C-91.46372816 27.69558342 -90.3479957 23.83660314 -89 20 C-86.36 20.33 -83.72 20.66 -81 21 C-80.06934867 23.60582371 -79.85082593 24.64198224 -80.9375 27.25 C-81.288125 27.8275 -81.63875 28.405 -82 29 C-79.46326712 27.6446674 -79.46326712 27.6446674 -77 26 C-77 25.34 -77 24.68 -77 24 C-76.401875 23.896875 -75.80375 23.79375 -75.1875 23.6875 C-72.9346991 23.18003094 -72.9346991 23.18003094 -71.625 21.5 C-68.05372891 18.20344207 -62.09680819 18.71828638 -57.4375 18.78125 C-47.49542365 19.67348762 -41.79242045 24.02883164 -35 31 C-34.4225 31.556875 -33.845 32.11375 -33.25 32.6875 C-32 34 -32 34 -31 36 C-30.9175 34.96875 -30.835 33.9375 -30.75 32.875 C-29.92672859 28.62143102 -28.76046978 26.31256374 -26 23 C-23.875 22.25 -23.875 22.25 -22 22 C-21.34 21.34 -20.68 20.68 -20 20 C-19.34 20.33 -18.68 20.66 -18 21 C-18 20.34 -18 19.68 -18 19 C-16.2507786 18.91857073 -14.50045458 18.86061459 -12.75 18.8125 C-11.77546875 18.77769531 -10.8009375 18.74289062 -9.796875 18.70703125 C-6.62531258 19.03924798 -5.32959693 19.88672279 -3 22 C-3.02356567 21.16021606 -3.02356567 21.16021606 -3.04760742 20.3034668 C-3.10999848 17.7649141 -3.14900218 15.22652271 -3.1875 12.6875 C-3.21263672 11.80642578 -3.23777344 10.92535156 -3.26367188 10.01757812 C-3.27817383 8.74624023 -3.27817383 8.74624023 -3.29296875 7.44921875 C-3.31653442 6.27879028 -3.31653442 6.27879028 -3.34057617 5.0847168 C-3 3 -3 3 0 0 Z M-155 26 C-157.6571444 29.83968051 -158.43240448 32.66976147 -158.6875 37.3125 C-158.75324219 38.38113281 -158.81898438 39.44976562 -158.88671875 40.55078125 C-158.92410156 41.35902344 -158.96148437 42.16726563 -159 43 C-155.37 43 -151.74 43 -148 43 C-148.33 39.04 -148.66 35.08 -149 31 C-149.66 31 -150.32 31 -151 31 C-150.67 30.01 -150.34 29.02 -150 28 C-152.475 27.01 -152.475 27.01 -155 26 Z M-61 26 C-63.6571444 29.83968051 -64.43240448 32.66976147 -64.6875 37.3125 C-64.75324219 38.38113281 -64.81898438 39.44976562 -64.88671875 40.55078125 C-64.92410156 41.35902344 -64.96148437 42.16726563 -65 43 C-61.37 43 -57.74 43 -54 43 C-54.14120714 41.06215735 -54.28812873 39.12473045 -54.4375 37.1875 C-54.51871094 36.10855469 -54.59992188 35.02960938 -54.68359375 33.91796875 C-54.90212461 30.94010095 -54.90212461 30.94010095 -56 28 C-58.50447516 26.78130071 -58.50447516 26.78130071 -61 26 Z M-8.58203125 29.20703125 C-13.81541458 35.82444984 -11.42894223 53.9597727 -10.58984375 61.86328125 C-9.99067113 65.0496098 -9.55877974 66.10872802 -7 68 C-3.9099511 66.9699837 -2.85766986 66.5912113 -1 64 C-0.56792868 60.85136083 -0.56792868 60.85136083 -0.671875 57.25 C-0.67374817 56.59547852 -0.67562134 55.94095703 -0.67755127 55.26660156 C-0.68426466 53.88471369 -0.69816526 52.5028446 -0.71875 51.12109375 C-0.74988755 49.00763246 -0.7597209 46.89491791 -0.765625 44.78125 C-0.29772782 36.53563846 -0.29772782 36.53563846 -3.4375 29.3125 C-5.56436113 27.52593665 -6.37753746 27.52508414 -8.58203125 29.20703125 Z M-84 30 C-84 30.66 -84 31.32 -84 32 C-83.01 31.67 -82.02 31.34 -81 31 C-81.99 30.67 -82.98 30.34 -84 30 Z M-128 33 C-127 35 -127 35 -127 35 Z M-85 33 C-84 35 -84 35 -84 35 Z M-86 36 C-85 38 -85 38 -85 38 Z M-32 38 C-31 42 -31 42 -31 42 Z M-33 43 C-32 45 -32 45 -32 45 Z M-99 52 C-98 54 -98 54 -98 54 Z " fill="#FFFFFF" transform="translate(320,320)"/>
<path d="M0 0 C5.61 0.33 11.22 0.66 17 1 C16.67 25.42 16.34 49.84 16 75 C9.4 75 2.8 75 -4 75 C-5.99733818 71.00532365 -6.32574227 68.91984967 -6.5625 64.5625 C-6.78757444 60.59843393 -7.20477305 56.88487921 -8 53 C-8.03824623 50.66698014 -8.04574284 48.33288492 -8 46 C-8.99 46.99 -8.99 46.99 -10 48 C-15.59320184 52.98853137 -19.87987804 53.16132444 -27.09570312 52.78125 C-27.95099609 52.7296875 -28.80628906 52.678125 -29.6875 52.625 C-30.55439453 52.58117187 -31.42128906 52.53734375 -32.31445312 52.4921875 C-38.73514187 52.13242906 -38.73514187 52.13242906 -41 51 C-40.505 56.445 -40.505 56.445 -40 62 C-39.34 62 -38.68 62 -38 62 C-37.01 64.97 -37.01 64.97 -36 68 C-35.34 68 -34.68 68 -34 68 C-34 68.66 -34 69.32 -34 70 C-31.69 70 -29.38 70 -27 70 C-26.71125 69.4225 -26.4225 68.845 -26.125 68.25 C-25 66 -25 66 -23.875 64.25 C-22.53839513 60.81301605 -22.87761816 57.67145533 -23 54 C-16.50816767 53.63253779 -16.50816767 53.63253779 -14.29296875 55.234375 C-11.92960945 58.46168135 -12.47965607 62.17720661 -13 66 C-14.3125 68.375 -14.3125 68.375 -16 70 C-16.474375 70.515625 -16.94875 71.03125 -17.4375 71.5625 C-21.25365934 75.07336659 -23.40396205 76.37910926 -28.71875 76.36328125 C-29.81574219 76.36263672 -30.91273437 76.36199219 -32.04296875 76.36132812 C-33.75419922 76.3371582 -33.75419922 76.3371582 -35.5 76.3125 C-36.64082031 76.31572266 -37.78164062 76.31894531 -38.95703125 76.32226562 C-49.74747283 76.25252717 -49.74747283 76.25252717 -54 72 C-54.639375 71.38125 -55.27875 70.7625 -55.9375 70.125 C-61 64.90909091 -61 64.90909091 -61 62 C-61.99 61.67 -62.98 61.34 -64 61 C-63.79375 61.61875 -63.5875 62.2375 -63.375 62.875 C-63.25125 63.57625 -63.1275 64.2775 -63 65 C-63.66 65.66 -64.32 66.32 -65 67 C-65.268125 67.639375 -65.53625 68.27875 -65.8125 68.9375 C-67.44401491 71.7711838 -69.04661854 72.62175532 -72 74 C-77.78898441 75.09979981 -83.44303351 75.13047961 -89.30859375 75.09765625 C-90.16650513 75.09664917 -91.0244165 75.09564209 -91.9083252 75.09460449 C-95.08473057 75.08940901 -98.26111676 75.07544799 -101.4375 75.0625 C-108.553125 75.041875 -115.66875 75.02125 -123 75 C-123 50.91 -123 26.82 -123 2 C-108.81 2 -94.62 2 -80 2 C-80 2.66 -80 3.32 -80 4 C-79.01 3.67 -78.02 3.34 -77 3 C-74.4375 3.6875 -74.4375 3.6875 -72 5 C-70.875 7.0625 -70.875 7.0625 -70 9 C-69.01 9.33 -68.02 9.66 -67 10 C-65.84672243 14.94261817 -65.46027023 19.95661339 -65 25 C-65.66 25 -66.32 25 -67 25 C-66.505 26.485 -66.505 26.485 -66 28 C-66.66 28.66 -67.32 29.32 -68 30 C-68.9590625 31.2375 -68.9590625 31.2375 -69.9375 32.5 C-72 35 -72 35 -75 37 C-74.21625 37.28875 -73.4325 37.5775 -72.625 37.875 C-69.67233878 39.14042624 -68.25165349 40.74834651 -66 43 C-65.67 43.99 -65.34 44.98 -65 46 C-64.34 46.66 -63.68 47.32 -63 48 C-62.8046875 50.8203125 -62.8046875 50.8203125 -62.875 54.125 C-62.89304688 55.22070312 -62.91109375 56.31640625 -62.9296875 57.4453125 C-62.95289063 58.28835938 -62.97609375 59.13140625 -63 60 C-62.34 60 -61.68 60 -61 60 C-61.33 59.01 -61.66 58.02 -62 57 C-63.09235188 48.69812575 -63.75970671 40.74057264 -60 33 C-58.49985533 31.49985533 -56.974668 30.02468419 -55.4375 28.5625 C-52.82314967 26.17731603 -52.82314967 26.17731603 -52 23 C-45.37874009 18.90112482 -37.56654519 19.28240645 -30 19 C-30 19.66 -30 20.32 -30 21 C-29.46375 20.773125 -28.9275 20.54625 -28.375 20.3125 C-24.89895728 19.85512596 -22.96253738 21.26111936 -20 23 C-19.01 23.99 -19.01 23.99 -18 25 C-17.34 25.33 -16.68 25.66 -16 26 C-13.01922569 28.82791409 -10.42144254 31.68904795 -8 35 C-8.02320312 33.80503906 -8.04640625 32.61007812 -8.0703125 31.37890625 C-8.33762225 11.80772005 -8.33762225 11.80772005 -4 4 C-2.66666667 2.66666667 -1.33333333 1.33333333 0 0 Z M-101 9 C-102.85236547 10.77518357 -103.89517575 12.28142214 -104.26953125 14.84765625 C-104.39908365 21.33705378 -103.2042639 27.64535747 -102 34 C-97.82417812 34.33406575 -95.41128084 34.20564042 -91.625 32.3125 C-88.92189875 30.28178656 -88.92189875 30.28178656 -88.125 27.8125 C-88.08375 26.884375 -88.0425 25.95625 -88 25 C-87.90912109 23.92105469 -87.90912109 23.92105469 -87.81640625 22.8203125 C-87.49645355 17.802527 -87.49645355 17.802527 -89.9375 13.5625 C-90.618125 13.046875 -91.29875 12.53125 -92 12 C-92.33 11.34 -92.66 10.68 -93 10 C-94.89533342 9.53476937 -94.89533342 9.53476937 -97.0625 9.375 C-98.361875 9.25125 -99.66125 9.1275 -101 9 Z M-37.5 27.0625 C-41.12471635 31.74442529 -41.23282097 37.29588626 -41 43 C-37.7 43 -34.4 43 -31 43 C-30.53839362 34.09018098 -30.53839362 34.09018098 -34 26 C-36.0343552 25.80732755 -36.0343552 25.80732755 -37.5 27.0625 Z M-9 36 C-8 39 -8 39 -8 39 Z M-102 40 C-102.33 40.66 -102.66 41.32 -103 42 C-102.67 42.66 -102.34 43.32 -102 44 C-102.66 44 -103.32 44 -104 44 C-104.35539347 56.16727387 -104.35539347 56.16727387 -102 68 C-98.7 68 -95.4 68 -92 68 C-92 67.34 -92 66.68 -92 66 C-90.35 65.67 -88.7 65.34 -87 65 C-84.85288982 59.49803017 -84.10544038 54.68367887 -86 49 C-87.28965176 47.62437146 -88.62689293 46.29233607 -90 45 C-90.495 44.46375 -90.99 43.9275 -91.5 43.375 C-94.13115024 40.96311228 -96.16742882 40.03784414 -99.75 39.875 C-100.4925 39.91625 -101.235 39.9575 -102 40 Z M-9 42 C-8 44 -8 44 -8 44 Z " fill="#FFFFFF" transform="translate(123,320)"/>
<path d="M0 0 C10.23 0 20.46 0 31 0 C31.33 60.39 31.66 120.78 32 183 C21.11 183 10.22 183 -1 183 C-0.67 122.61 -0.34 62.22 0 0 Z " fill="#FFFFFF" transform="translate(178,77)"/>
<path d="M0 0 C1.19109375 -0.03867187 1.19109375 -0.03867187 2.40625 -0.078125 C3.0971875 0.03015625 3.788125 0.1384375 4.5 0.25 C5.49 1.735 5.49 1.735 6.5 3.25 C6.995 3.745 6.995 3.745 7.5 4.25 C8.16 3.59 8.82 2.93 9.5 2.25 C12.03125 1.765625 12.03125 1.765625 15 1.5 C15.9796875 1.40203125 16.959375 1.3040625 17.96875 1.203125 C20.5 1.25 20.5 1.25 22.5 3.25 C23.5828125 3.9925 23.5828125 3.9925 24.6875 4.75 C27.27690033 8.32158667 26.47046466 10.97438458 25.859375 15.203125 C25.68148437 16.21632813 25.68148437 16.21632813 25.5 17.25 C27.63701805 16.45063358 27.63701805 16.45063358 28.25 14.5 C29.53072142 12.19470144 30.59045556 11.23926296 32.625 9.625 C33.57375 8.84125 34.5225 8.0575 35.5 7.25 C35.5 6.59 35.5 5.93 35.5 5.25 C42.38404159 1.38822057 49.79888354 1.53742906 57.5 1.25 C57.5 1.91 57.5 2.57 57.5 3.25 C58.03625 3.023125 58.5725 2.79625 59.125 2.5625 C62.60104272 2.10512596 64.53746262 3.51111936 67.5 5.25 C68.49 6.24 68.49 6.24 69.5 7.25 C70.49 7.745 70.49 7.745 71.5 8.25 C75.69803078 12.13317847 78.34421408 14.67018524 78.6953125 20.484375 C78.67210937 21.64453125 78.64890625 22.8046875 78.625 24 C78.60695313 25.17046875 78.58890625 26.3409375 78.5703125 27.546875 C78.54710937 28.43890625 78.52390625 29.3309375 78.5 30.25 C77.571875 30.683125 77.571875 30.683125 76.625 31.125 C74.36674235 32.18720042 74.36674235 32.18720042 72.5 34.25 C67.69801991 35.79482305 62.70879451 35.17237898 57.75 34.875 C56.87472656 34.83117187 55.99945313 34.78734375 55.09765625 34.7421875 C48.63127309 34.38127309 48.63127309 34.38127309 47.5 33.25 C47.61470137 35.00070517 47.74219028 36.75057536 47.875 38.5 C47.97941406 39.96179688 47.97941406 39.96179688 48.0859375 41.453125 C48.66123291 45.33908268 49.73435346 47.48435346 52.5 50.25 C52.83 50.91 53.16 51.57 53.5 52.25 C54.49 51.92 55.48 51.59 56.5 51.25 C58.6875 51.6875 58.6875 51.6875 60.5 52.25 C60.768125 51.610625 61.03625 50.97125 61.3125 50.3125 C62.5 48.25 62.5 48.25 65.5 47.25 C65.17 43.62 64.84 39.99 64.5 36.25 C70.92570647 35.88628077 70.92570647 35.88628077 73.375 37.4375 C74.76229035 39.6725789 75.14987213 41.65905378 75.5 44.25 C74.84 44.25 74.18 44.25 73.5 44.25 C73.726875 44.8275 73.95375 45.405 74.1875 46 C74.5 48.25 74.5 48.25 73.25 50.3125 C66.3069058 57.99949715 66.3069058 57.99949715 61.81445312 58.62231445 C60.81349609 58.6193335 59.81253906 58.61635254 58.78125 58.61328125 C57.68425781 58.61263672 56.58726562 58.61199219 55.45703125 58.61132812 C53.74580078 58.5871582 53.74580078 58.5871582 52 58.5625 C50.85917969 58.56572266 49.71835937 58.56894531 48.54296875 58.57226562 C37.75252717 58.50252717 37.75252717 58.50252717 33.5 54.25 C32.860625 53.63125 32.22125 53.0125 31.5625 52.375 C24.1222221 44.70925914 25.16936813 35.51839189 24.5 25.25 C20.21 25.58 15.92 25.91 11.5 26.25 C9.17376352 22.76064529 9.24927506 21.34517402 9.5 17.25 C10 14.875 10 14.875 10.5 13.25 C6.6513257 16.93134063 6.36812536 19.20045131 6.23423767 24.57522583 C6.21752518 25.43985443 6.20081268 26.30448303 6.18359375 27.1953125 C6.1524221 28.52283035 6.1524221 28.52283035 6.12062073 29.87716675 C6.05513402 32.70969741 5.99624438 35.54232225 5.9375 38.375 C5.89431394 40.29297857 5.85069963 42.21094754 5.80664062 44.12890625 C5.69864599 48.8358423 5.59956622 53.54284783 5.5 58.25 C-1.43 57.92 -8.36 57.59 -15.5 57.25 C-15.995 44.38 -15.995 44.38 -16.5 31.25 C-17.49 31.58 -18.48 31.91 -19.5 32.25 C-19.5 32.91 -19.5 33.57 -19.5 34.25 C-27.1835092 34.86205763 -34.79052435 35.38292199 -42.5 35.25 C-42.5 34.59 -42.5 33.93 -42.5 33.25 C-44.15 33.25 -45.8 33.25 -47.5 33.25 C-47.355625 34.52875 -47.21125 35.8075 -47.0625 37.125 C-46.98128906 37.84429687 -46.90007812 38.56359375 -46.81640625 39.3046875 C-46.58707039 41.32404316 -46.58707039 41.32404316 -45.5 43.25 C-45.83 43.91 -46.16 44.57 -46.5 45.25 C-45.84 45.25 -45.18 45.25 -44.5 45.25 C-44.21125 45.86875 -43.9225 46.4875 -43.625 47.125 C-42.56279958 49.38325765 -42.56279958 49.38325765 -40.5 51.25 C-36.54841529 51.59361606 -33.89464446 51.33901197 -30.5 49.25 C-30.5 48.26 -30.5 47.27 -30.5 46.25 C-29.84 46.25 -29.18 46.25 -28.5 46.25 C-28.995 42.29 -28.995 42.29 -29.5 38.25 C-26.5 36.25 -26.5 36.25 -23.4375 36.5 C-20.5 37.25 -20.5 37.25 -18.5 39.25 C-18.74568889 44.32757032 -19.0515214 47.38770397 -22.5 51.25 C-22.995 52.3328125 -22.995 52.3328125 -23.5 53.4375 C-24.5 55.25 -24.5 55.25 -27.5 56.25 C-28.11367432 56.59514648 -28.72734863 56.94029297 -29.35961914 57.29589844 C-31.96060474 58.45532033 -33.90382118 58.50858532 -36.74609375 58.515625 C-37.74833984 58.51820313 -38.75058594 58.52078125 -39.78320312 58.5234375 C-40.82412109 58.51570313 -41.86503906 58.50796875 -42.9375 58.5 C-43.97455078 58.50773437 -45.01160156 58.51546875 -46.08007812 58.5234375 C-47.08361328 58.52085937 -48.08714844 58.51828125 -49.12109375 58.515625 C-50.0330249 58.51336914 -50.94495605 58.51111328 -51.88452148 58.50878906 C-54.76834783 58.22344827 -56.91009717 57.53941319 -59.5 56.25 C-59.83 55.59 -60.16 54.93 -60.5 54.25 C-62.34151168 52.3471046 -64.20819069 50.50938605 -66.1875 48.75 C-67.77259559 46.93846218 -68.19371068 45.62374225 -68.5 43.25 C-68.17 42.59 -67.84 41.93 -67.5 41.25 C-68.16 41.25 -68.82 41.25 -69.5 41.25 C-69.55429278 38.54139335 -69.59381211 35.83389099 -69.625 33.125 C-69.64175781 32.36445313 -69.65851563 31.60390625 -69.67578125 30.8203125 C-69.71554783 26.20738901 -69.25003329 22.59267519 -67.5 18.25 C-67.17 17.3425 -66.84 16.435 -66.5 15.5 C-64.82558292 11.73256158 -61.39613603 9.14613603 -58.5 6.25 C-57.8503125 5.4146875 -57.8503125 5.4146875 -57.1875 4.5625 C-52.11384331 0.61632257 -44.62669911 0.84232991 -38.5 1.25 C-35.4375 1.75 -35.4375 1.75 -33.5 2.25 C-33.5 2.91 -33.5 3.57 -33.5 4.25 C-32.51 3.92 -31.52 3.59 -30.5 3.25 C-28.30859375 4.10546875 -28.30859375 4.10546875 -25.9375 5.4375 C-25.15246094 5.86417969 -24.36742187 6.29085938 -23.55859375 6.73046875 C-21.31108306 8.38944723 -20.51730888 9.68198244 -19.5 12.25 C-18.84 12.25 -18.18 12.25 -17.5 12.25 C-16.84 13.57 -16.18 14.89 -15.5 16.25 C-15.5 11.96 -15.5 7.67 -15.5 3.25 C-9.5 2.25 -9.5 2.25 -7.5 3.25 C-7.17 2.59 -6.84 1.93 -6.5 1.25 C-4.15897141 0.07948571 -2.60647047 0.0507754 0 0 Z M-44.5 8.25 C-47.30500965 12.45751447 -47.62829139 15.49985414 -47.5625 20.5 C-47.541875 22.0675 -47.52125 23.635 -47.5 25.25 C-44.2 25.25 -40.9 25.25 -37.5 25.25 C-37.479375 23.8475 -37.45875 22.445 -37.4375 21 C-37.42589844 20.21109375 -37.41429687 19.4221875 -37.40234375 18.609375 C-37.49614694 16.34308998 -37.86758937 14.4211105 -38.5 12.25 C-39.16 12.25 -39.82 12.25 -40.5 12.25 C-40.17 11.26 -39.84 10.27 -39.5 9.25 C-41.15 8.92 -42.8 8.59 -44.5 8.25 Z M49.421875 9.828125 C46.93295902 12.96456384 46.90855577 15.03610572 46.75 19 C46.69328125 20.17046875 46.6365625 21.3409375 46.578125 22.546875 C46.55234375 23.43890625 46.5265625 24.3309375 46.5 25.25 C49.8 25.25 53.1 25.25 56.5 25.25 C56.96160638 16.34018098 56.96160638 16.34018098 53.5 8.25 C51.33056067 8.04840681 51.33056067 8.04840681 49.421875 9.828125 Z M24.5 18.25 C24.83 19.57 25.16 20.89 25.5 22.25 C25.5 21.59 25.5 20.93 25.5 20.25 C26.16 19.92 26.82 19.59 27.5 19.25 C26.51 18.92 25.52 18.59 24.5 18.25 Z M25.5 22.25 C26.5 24.25 26.5 24.25 26.5 24.25 Z M-16.5 26.25 C-15.5 28.25 -15.5 28.25 -15.5 28.25 Z " fill="#FFFFFF" transform="translate(409.5,337.75)"/>
<path d="" fill="#FFFFFF" transform="translate(0,0)"/>
<path d="" fill="#FFFFFF" transform="translate(0,0)"/>
<path d="" fill="#FFFFFF" transform="translate(0,0)"/>
<path d="" fill="#FFFFFF" transform="translate(0,0)"/>
<path d="" fill="#FFFFFF" transform="translate(0,0)"/>
<path d="" fill="#FFFFFF" transform="translate(0,0)"/>
<path d="" fill="#FFFFFF" transform="translate(0,0)"/>
<path d="" fill="#FFFFFF" transform="translate(0,0)"/>
<path d="" fill="#FFFFFF" transform="translate(0,0)"/>
<path d="" fill="#FFFFFF" transform="translate(0,0)"/>
<path d="" fill="#FFFFFF" transform="translate(0,0)"/>
<path d="" fill="#FFFFFF" transform="translate(0,0)"/>
<path d="" fill="#FFFFFF" transform="translate(0,0)"/>
<path d="" fill="#FFFFFF" transform="translate(0,0)"/>
<path d="" fill="#FFFFFF" transform="translate(0,0)"/>
<path d="" fill="#FFFFFF" transform="translate(0,0)"/>
<path d="" fill="#FFFFFF" transform="translate(0,0)"/>
<path d="" fill="#FFFFFF" transform="translate(0,0)"/>
<path d="" fill="#FFFFFF" transform="translate(0,0)"/>
<path d="" fill="#FFFFFF" transform="translate(0,0)"/>
<path d="" fill="#FFFFFF" transform="translate(0,0)"/>
<path d="" fill="#FFFFFF" transform="translate(0,0)"/>
<path d="" fill="#FFFFFF" transform="translate(0,0)"/>
<path d="" fill="#FFFFFF" transform="translate(0,0)"/>
<path d="" fill="#FFFFFF" transform="translate(0,0)"/>
<path d="" fill="#FFFFFF" transform="translate(0,0)"/>
<path d="" fill="#FFFFFF" transform="translate(0,0)"/>
<path d="" fill="#FFFFFF" transform="translate(0,0)"/>
<path d="" fill="#FFFFFF" transform="translate(0,0)"/>
<path d="" fill="#FFFFFF" transform="translate(0,0)"/>
<path d="" fill="#FFFFFF" transform="translate(0,0)"/>
<path d="" fill="#FFFFFF" transform="translate(0,0)"/>
<path d="" fill="#FFFFFF" transform="translate(0,0)"/>
<path d="" fill="#FFFFFF" transform="translate(0,0)"/>
<path d="" fill="#FFFFFF" transform="translate(0,0)"/>
<path d="" fill="#FFFFFF" transform="translate(0,0)"/>
<path d="" fill="#FFFFFF" transform="translate(0,0)"/>
<path d="" fill="#FFFFFF" transform="translate(0,0)"/>
<path d="" fill="#FFFFFF" transform="translate(0,0)"/>
<path d="" fill="#FFFFFF" transform="translate(0,0)"/>
<path d="" fill="#FFFFFF" transform="translate(0,0)"/>
<path d="" fill="#FFFFFF" transform="translate(0,0)"/>
<path d="" fill="#FFFFFF" transform="translate(0,0)"/>
<path d="" fill="#FFFFFF" transform="translate(0,0)"/>
<path d="" fill="#FFFFFF" transform="translate(0,0)"/>
<path d="" fill="#FFFFFF" transform="translate(0,0)"/>
<path d="" fill="#FFFFFF" transform="translate(0,0)"/>
<path d="" fill="#FFFFFF" transform="translate(0,0)"/>
<path d="" fill="#FFFFFF" transform="translate(0,0)"/>
<path d="" fill="#FFFFFF" transform="translate(0,0)"/>
<path d="" fill="#FFFFFF" transform="translate(0,0)"/>
<path d="" fill="#FFFFFF" transform="translate(0,0)"/>
<path d="" fill="#FFFFFF" transform="translate(0,0)"/>
<path d="" fill="#FFFFFF" transform="translate(0,0)"/>
<path d="" fill="#FFFFFF" transform="translate(0,0)"/>
<path d="" fill="#FFFFFF" transform="translate(0,0)"/>
<path d="" fill="#FFFFFF" transform="translate(0,0)"/>
<path d="" fill="#FFFFFF" transform="translate(0,0)"/>
<path d="" fill="#FFFFFF" transform="translate(0,0)"/>
<path d="" fill="#FFFFFF" transform="translate(0,0)"/>
<path d="" fill="#FFFFFF" transform="translate(0,0)"/>
<path d="" fill="#FFFFFF" transform="translate(0,0)"/>
<path d="" fill="#FFFFFF" transform="translate(0,0)"/>
<path d="" fill="#FFFFFF" transform="translate(0,0)"/>
<path d="" fill="#FFFFFF" transform="translate(0,0)"/>
<path d="" fill="#FFFFFF" transform="translate(0,0)"/>
<path d="" fill="#FFFFFF" transform="translate(0,0)"/>
<path d="" fill="#FFFFFF" transform="translate(0,0)"/>
<path d="" fill="#FFFFFF" transform="translate(0,0)"/>
<path d="" fill="#FFFFFF" transform="translate(0,0)"/>
<path d="" fill="#FFFFFF" transform="translate(0,0)"/>
<path d="" fill="#FFFFFF" transform="translate(0,0)"/>
<path d="" fill="#FFFFFF" transform="translate(0,0)"/>
<path d="" fill="#FFFFFF" transform="translate(0,0)"/>
<path d="" fill="#FFFFFF" transform="translate(0,0)"/>
<path d="" fill="#FFFFFF" transform="translate(0,0)"/>
<path d="" fill="#FFFFFF" transform="translate(0,0)"/>
<path d="" fill="#FFFFFF" transform="translate(0,0)"/>
<path d="" fill="#FFFFFF" transform="translate(0,0)"/>
<path d="" fill="#FFFFFF" transform="translate(0,0)"/>
<path d="" fill="#FFFFFF" transform="translate(0,0)"/>
<path d="" fill="#FFFFFF" transform="translate(0,0)"/>
<path d="" fill="#FFFFFF" transform="translate(0,0)"/>
<path d="" fill="#FFFFFF" transform="translate(0,0)"/>
<path d="" fill="#FFFFFF" transform="translate(0,0)"/>
<path d="" fill="#FFFFFF" transform="translate(0,0)"/>
<path d="" fill="#FFFFFF" transform="translate(0,0)"/>
<path d="" fill="#FFFFFF" transform="translate(0,0)"/>
<path d="" fill="#FFFFFF" transform="translate(0,0)"/>
<path d="" fill="#FFFFFF" transform="translate(0,0)"/>
<path d="" fill="#FFFFFF" transform="translate(0,0)"/>
<path d="" fill="#FFFFFF" transform="translate(0,0)"/>
<path d="" fill="#FFFFFF" transform="translate(0,0)"/>
<path d="" fill="#FFFFFF" transform="translate(0,0)"/>
<path d="" fill="#FFFFFF" transform="translate(0,0)"/>
<path d="" fill="#FFFFFF" transform="translate(0,0)"/>
<path d="" fill="#FFFFFF" transform="translate(0,0)"/>
<path d="" fill="#FFFFFF" transform="translate(0,0)"/>
<path d="" fill="#FFFFFF" transform="translate(0,0)"/>
<path d="" fill="#FFFFFF" transform="translate(0,0)"/>
<path d="" fill="#FFFFFF" transform="translate(0,0)"/>
<path d="" fill="#FFFFFF" transform="translate(0,0)"/>
<path d="" fill="#FFFFFF" transform="translate(0,0)"/>
<path d="" fill="#FFFFFF" transform="translate(0,0)"/>
<path d="" fill="#FFFFFF" transform="translate(0,0)"/>
<path d="" fill="#FFFFFF" transform="translate(0,0)"/>
<path d="" fill="#FFFFFF" transform="translate(0,0)"/>
<path d="" fill="#FFFFFF" transform="translate(0,0)"/>
<path d="" fill="#FFFFFF" transform="translate(0,0)"/>
<path d="" fill="#FFFFFF" transform="translate(0,0)"/>
<path d="" fill="#FFFFFF" transform="translate(0,0)"/>
<path d="" fill="#FFFFFF" transform="translate(0,0)"/>
<path d="" fill="#FFFFFF" transform="translate(0,0)"/>
<path d="" fill="#FFFFFF" transform="translate(0,0)"/>
<path d="" fill="#FFFFFF" transform="translate(0,0)"/>
<path d="" fill="#FFFFFF" transform="translate(0,0)"/>
<path d="" fill="#FFFFFF" transform="translate(0,0)"/>
<path d="" fill="#FFFFFF" transform="translate(0,0)"/>
<path d="" fill="#FFFFFF" transform="translate(0,0)"/>
<path d="" fill="#FFFFFF" transform="translate(0,0)"/>
<path d="" fill="#FFFFFF" transform="translate(0,0)"/>
<path d="" fill="#FFFFFF" transform="translate(0,0)"/>
<path d="" fill="#FFFFFF" transform="translate(0,0)"/>
<path d="" fill="#FFFFFF" transform="translate(0,0)"/>
<path d="" fill="#FFFFFF" transform="translate(0,0)"/>
<path d="" fill="#FFFFFF" transform="translate(0,0)"/>
<path d="" fill="#FFFFFF" transform="translate(0,0)"/>
<path d="" fill="#FFFFFF" transform="translate(0,0)"/>
<path d="" fill="#FFFFFF" transform="translate(0,0)"/>
<path d="" fill="#FFFFFF" transform="translate(0,0)"/>
<path d="" fill="#FFFFFF" transform="translate(0,0)"/>
<path d="" fill="#FFFFFF" transform="translate(0,0)"/>
<path d="" fill="#FFFFFF" transform="translate(0,0)"/>
<path d="" fill="#FFFFFF" transform="translate(0,0)"/>
<path d="" fill="#FFFFFF" transform="translate(0,0)"/>
<path d="" fill="#FFFFFF" transform="translate(0,0)"/>
<path d="" fill="#FFFFFF" transform="translate(0,0)"/>
<path d="" fill="#FFFFFF" transform="translate(0,0)"/>
<path d="" fill="#FFFFFF" transform="translate(0,0)"/>
<path d="" fill="#FFFFFF" transform="translate(0,0)"/>
<path d="" fill="#FFFFFF" transform="translate(0,0)"/>
<path d="" fill="#FFFFFF" transform="translate(0,0)"/>
<path d="" fill="#FFFFFF" transform="translate(0,0)"/>
<path d="" fill="#FFFFFF" transform="translate(0,0)"/>
<path d="" fill="#FFFFFF" transform="translate(0,0)"/>
<path d="" fill="#FFFFFF" transform="translate(0,0)"/>
<path d="" fill="#FFFFFF" transform="translate(0,0)"/>
<path d="" fill="#FFFFFF" transform="translate(0,0)"/>
<path d="" fill="#FFFFFF" transform="translate(0,0)"/>
<path d="" fill="#FFFFFF" transform="translate(0,0)"/>
<path d="" fill="#FFFFFF" transform="translate(0,0)"/>
<path d="" fill="#FFFFFF" transform="translate(0,0)"/>
<path d="" fill="#FFFFFF" transform="translate(0,0)"/>
<path d="" fill="#FFFFFF" transform="translate(0,0)"/>
<path d="" fill="#FFFFFF" transform="translate(0,0)"/>
<path d="" fill="#FFFFFF" transform="translate(0,0)"/>
<path d="" fill="#FFFFFF" transform="translate(0,0)"/>
<path d="" fill="#FFFFFF" transform="translate(0,0)"/>
<path d="" fill="#FFFFFF" transform="translate(0,0)"/>
<path d="" fill="#FFFFFF" transform="translate(0,0)"/>
<path d="" fill="#FFFFFF" transform="translate(0,0)"/>
<path d="" fill="#FFFFFF" transform="translate(0,0)"/>
<path d="" fill="#FFFFFF" transform="translate(0,0)"/>
<path d="" fill="#FFFFFF" transform="translate(0,0)"/>
<path d="" fill="#FFFFFF" transform="translate(0,0)"/>
<path d="" fill="#FFFFFF" transform="translate(0,0)"/>
<path d="" fill="#FFFFFF" transform="translate(0,0)"/>
<path d="" fill="#FFFFFF" transform="translate(0,0)"/>
<path d="" fill="#FFFFFF" transform="translate(0,0)"/>
<path d="" fill="#FFFFFF" transform="translate(0,0)"/>
<path d="" fill="#FFFFFF" transform="translate(0,0)"/>
<path d="" fill="#FFFFFF" transform="translate(0,0)"/>
<path d="" fill="#FFFFFF" transform="translate(0,0)"/>
<path d="" fill="#FFFFFF" transform="translate(0,0)"/>
<path d="" fill="#FFFFFF" transform="translate(0,0)"/>
<path d="" fill="#FFFFFF" transform="translate(0,0)"/>
<path d="" fill="#FFFFFF" transform="translate(0,0)"/>
<path d="" fill="#FFFFFF" transform="translate(0,0)"/>
<path d="" fill="#FFFFFF" transform="translate(0,0)"/>
<path d="" fill="#FFFFFF" transform="translate(0,0)"/>
<path d="" fill="#FFFFFF" transform="translate(0,0)"/>
<path d="" fill="#FFFFFF" transform="translate(0,0)"/>
<path d="" fill="#FFFFFF" transform="translate(0,0)"/>
<path d="" fill="#FFFFFF" transform="translate(0,0)"/>
<path d="" fill="#FFFFFF" transform="translate(0,0)"/>
<path d="" fill="#FFFFFF" transform="translate(0,0)"/>
<path d="" fill="#FFFFFF" transform="translate(0,0)"/>
<path d="" fill="#FFFFFF" transform="translate(0,0)"/>
<path d="" fill="#FFFFFF" transform="translate(0,0)"/>
<path d="" fill="#FFFFFF" transform="translate(0,0)"/>
<path d="" fill="#FFFFFF" transform="translate(0,0)"/>
<path d="" fill="#FFFFFF" transform="translate(0,0)"/>
<path d="" fill="#FFFFFF" transform="translate(0,0)"/>
<path d="" fill="#FFFFFF" transform="translate(0,0)"/>
<path d="" fill="#FFFFFF" transform="translate(0,0)"/>
<path d="" fill="#FFFFFF" transform="translate(0,0)"/>
<path d="" fill="#FFFFFF" transform="translate(0,0)"/>
<path d="" fill="#FFFFFF" transform="translate(0,0)"/>
<path d="" fill="#FFFFFF" transform="translate(0,0)"/>
<path d="" fill="#FFFFFF" transform="translate(0,0)"/>
<path d="" fill="#FFFFFF" transform="translate(0,0)"/>
<path d="" fill="#FFFFFF" transform="translate(0,0)"/>
<path d="" fill="#FFFFFF" transform="translate(0,0)"/>
<path d="" fill="#FFFFFF" transform="translate(0,0)"/>
<path d="" fill="#FFFFFF" transform="translate(0,0)"/>
<path d="" fill="#FFFFFF" transform="translate(0,0)"/>
<path d="" fill="#FFFFFF" transform="translate(0,0)"/>
<path d="" fill="#FFFFFF" transform="translate(0,0)"/>
<path d="" fill="#FFFFFF" transform="translate(0,0)"/>
<path d="" fill="#FFFFFF" transform="translate(0,0)"/>
<path d="" fill="#FFFFFF" transform="translate(0,0)"/>
</svg>
